<svg xmlns="http://www.w3.org/2000/svg" xmlns:xlink="http://www.w3.org/1999/xlink" width="550" zoomAndPan="magnify" viewBox="0 0 412.5 112.499997" height="150" preserveAspectRatio="xMidYMid meet" version="1.0"><defs><g/><clipPath id="c8aca77724"><path d="M 20 8.785156 L 59 8.785156 L 59 42 L 20 42 Z M 20 8.785156 " clip-rule="nonzero"/></clipPath><clipPath id="6d68ca062a"><path d="M 21.414062 8.816406 C 18.644531 17.988281 48.734375 30.820312 58.9375 35.46875 L 58.878906 36.589844 C 58.769531 38.539062 58.066406 40.269531 56.90625 41.851562 C 25.984375 28.59375 16.152344 19.785156 21.414062 8.816406 Z M 21.414062 8.816406 " clip-rule="nonzero"/></clipPath><clipPath id="7f65c93def"><path d="M 17 15 L 56 15 L 56 48 L 17 48 Z M 17 15 " clip-rule="nonzero"/></clipPath><clipPath id="e7e6f3d9a0"><path d="M 18.859375 16.824219 C 20.902344 27.476562 41.976562 37.363281 55.960938 43.089844 L 55.964844 43.089844 C 54.242188 44.6875 52.042969 46.136719 49.535156 47.523438 C 21.191406 35.066406 13.683594 26.027344 18.628906 15.480469 C 18.679688 15.9375 18.757812 16.382812 18.859375 16.824219 Z M 18.859375 16.824219 " clip-rule="evenodd"/></clipPath><clipPath id="4f2ab0d680"><path d="M 10 36 L 62 36 L 62 92 L 10 92 Z M 10 36 " clip-rule="nonzero"/></clipPath><clipPath id="03f6eeba41"><path d="M 38.152344 63.449219 C 56.132812 55.90625 65.992188 47.300781 60.386719 36.671875 C 59.253906 57.578125 0.660156 54.933594 11.828125 91.636719 C 13.441406 75.339844 26.351562 69.558594 38.152344 63.449219 Z M 38.152344 63.449219 " clip-rule="evenodd"/></clipPath><linearGradient x1="-10.520035" gradientTransform="matrix(-0.0853257, 0, 0, 0.0853257, 65.09312, 8.815419)" y1="648.547" x2="755.099922" gradientUnits="userSpaceOnUse" y2="648.547" id="66794aa8b2"><stop stop-opacity="1" stop-color="rgb(3.898621%, 45.098877%, 68.998718%)" offset="0"/><stop stop-opacity="1" stop-color="rgb(3.90625%, 45.117188%, 69.012451%)" offset="0.0625"/><stop stop-opacity="1" stop-color="rgb(4.000854%, 45.329285%, 69.181824%)" offset="0.0703125"/><stop stop-opacity="1" stop-color="rgb(4.171753%, 45.718384%, 69.488525%)" offset="0.078125"/><stop stop-opacity="1" stop-color="rgb(4.344177%, 46.105957%, 69.795227%)" offset="0.0859375"/><stop stop-opacity="1" stop-color="rgb(4.515076%, 46.49353%, 70.101929%)" offset="0.09375"/><stop stop-opacity="1" stop-color="rgb(4.685974%, 46.882629%, 70.40863%)" offset="0.101563"/><stop stop-opacity="1" stop-color="rgb(4.856873%, 47.270203%, 70.715332%)" offset="0.109375"/><stop stop-opacity="1" stop-color="rgb(5.029297%, 47.659302%, 71.02356%)" offset="0.117188"/><stop stop-opacity="1" stop-color="rgb(5.200195%, 48.046875%, 71.330261%)" offset="0.125"/><stop stop-opacity="1" stop-color="rgb(5.371094%, 48.434448%, 71.636963%)" offset="0.132813"/><stop stop-opacity="1" stop-color="rgb(5.541992%, 48.823547%, 71.943665%)" offset="0.140625"/><stop stop-opacity="1" stop-color="rgb(5.714417%, 49.211121%, 72.250366%)" offset="0.148438"/><stop stop-opacity="1" stop-color="rgb(5.885315%, 49.598694%, 72.557068%)" offset="0.15625"/><stop stop-opacity="1" stop-color="rgb(6.056213%, 49.987793%, 72.86377%)" offset="0.164062"/><stop stop-opacity="1" stop-color="rgb(6.227112%, 50.375366%, 73.171997%)" offset="0.171875"/><stop stop-opacity="1" stop-color="rgb(6.399536%, 50.764465%, 73.478699%)" offset="0.179688"/><stop stop-opacity="1" stop-color="rgb(6.570435%, 51.152039%, 73.7854%)" offset="0.1875"/><stop stop-opacity="1" stop-color="rgb(6.741333%, 51.539612%, 74.092102%)" offset="0.195312"/><stop stop-opacity="1" stop-color="rgb(6.912231%, 51.928711%, 74.398804%)" offset="0.203125"/><stop stop-opacity="1" stop-color="rgb(7.084656%, 52.316284%, 74.705505%)" offset="0.210938"/><stop stop-opacity="1" stop-color="rgb(7.255554%, 52.703857%, 75.013733%)" offset="0.21875"/><stop stop-opacity="1" stop-color="rgb(7.426453%, 53.092957%, 75.320435%)" offset="0.226562"/><stop stop-opacity="1" stop-color="rgb(7.598877%, 53.48053%, 75.627136%)" offset="0.234375"/><stop stop-opacity="1" stop-color="rgb(7.769775%, 53.869629%, 75.933838%)" offset="0.242188"/><stop stop-opacity="1" stop-color="rgb(7.940674%, 54.257202%, 76.24054%)" offset="0.25"/><stop stop-opacity="1" stop-color="rgb(8.111572%, 54.644775%, 76.547241%)" offset="0.257813"/><stop stop-opacity="1" stop-color="rgb(8.283997%, 55.033875%, 76.855469%)" offset="0.265625"/><stop stop-opacity="1" stop-color="rgb(8.454895%, 55.421448%, 77.16217%)" offset="0.273438"/><stop stop-opacity="1" stop-color="rgb(8.625793%, 55.809021%, 77.468872%)" offset="0.28125"/><stop stop-opacity="1" stop-color="rgb(8.796692%, 56.19812%, 77.775574%)" offset="0.289063"/><stop stop-opacity="1" stop-color="rgb(8.969116%, 56.585693%, 78.082275%)" offset="0.296875"/><stop stop-opacity="1" stop-color="rgb(9.140015%, 56.974792%, 78.388977%)" offset="0.304688"/><stop stop-opacity="1" stop-color="rgb(9.310913%, 57.362366%, 78.697205%)" offset="0.3125"/><stop stop-opacity="1" stop-color="rgb(9.481812%, 57.749939%, 79.003906%)" offset="0.320313"/><stop stop-opacity="1" stop-color="rgb(9.654236%, 58.139038%, 79.310608%)" offset="0.328125"/><stop stop-opacity="1" stop-color="rgb(9.825134%, 58.526611%, 79.61731%)" offset="0.335938"/><stop stop-opacity="1" stop-color="rgb(9.996033%, 58.914185%, 79.924011%)" offset="0.34375"/><stop stop-opacity="1" stop-color="rgb(10.166931%, 59.303284%, 80.230713%)" offset="0.351563"/><stop stop-opacity="1" stop-color="rgb(10.339355%, 59.690857%, 80.53894%)" offset="0.359375"/><stop stop-opacity="1" stop-color="rgb(10.510254%, 60.079956%, 80.845642%)" offset="0.367188"/><stop stop-opacity="1" stop-color="rgb(10.681152%, 60.467529%, 81.152344%)" offset="0.375"/><stop stop-opacity="1" stop-color="rgb(10.853577%, 60.855103%, 81.459045%)" offset="0.382813"/><stop stop-opacity="1" stop-color="rgb(11.024475%, 61.244202%, 81.765747%)" offset="0.390625"/><stop stop-opacity="1" stop-color="rgb(11.195374%, 61.631775%, 82.072449%)" offset="0.398438"/><stop stop-opacity="1" stop-color="rgb(11.366272%, 62.019348%, 82.380676%)" offset="0.40625"/><stop stop-opacity="1" stop-color="rgb(11.538696%, 62.408447%, 82.687378%)" offset="0.414063"/><stop stop-opacity="1" stop-color="rgb(11.709595%, 62.796021%, 82.99408%)" offset="0.421875"/><stop stop-opacity="1" stop-color="rgb(11.880493%, 63.18512%, 83.300781%)" offset="0.429688"/><stop stop-opacity="1" stop-color="rgb(12.051392%, 63.572693%, 83.607483%)" offset="0.4375"/><stop stop-opacity="1" stop-color="rgb(12.223816%, 63.960266%, 83.914185%)" offset="0.445313"/><stop stop-opacity="1" stop-color="rgb(12.394714%, 64.349365%, 84.222412%)" offset="0.453125"/><stop stop-opacity="1" stop-color="rgb(12.565613%, 64.736938%, 84.529114%)" offset="0.460938"/><stop stop-opacity="1" stop-color="rgb(12.736511%, 65.124512%, 84.835815%)" offset="0.46875"/><stop stop-opacity="1" stop-color="rgb(12.908936%, 65.513611%, 85.142517%)" offset="0.476563"/><stop stop-opacity="1" stop-color="rgb(13.079834%, 65.901184%, 85.449219%)" offset="0.484375"/><stop stop-opacity="1" stop-color="rgb(13.250732%, 66.290283%, 85.75592%)" offset="0.492188"/><stop stop-opacity="1" stop-color="rgb(13.421631%, 66.677856%, 86.064148%)" offset="0.5"/><stop stop-opacity="1" stop-color="rgb(13.594055%, 67.06543%, 86.37085%)" offset="0.507813"/><stop stop-opacity="1" stop-color="rgb(13.764954%, 67.454529%, 86.677551%)" offset="0.515625"/><stop stop-opacity="1" stop-color="rgb(13.935852%, 67.842102%, 86.984253%)" offset="0.523438"/><stop stop-opacity="1" stop-color="rgb(14.108276%, 68.231201%, 87.290955%)" offset="0.53125"/><stop stop-opacity="1" stop-color="rgb(14.279175%, 68.618774%, 87.597656%)" offset="0.539063"/><stop stop-opacity="1" stop-color="rgb(14.450073%, 69.006348%, 87.905884%)" offset="0.546875"/><stop stop-opacity="1" stop-color="rgb(14.620972%, 69.395447%, 88.212585%)" offset="0.554688"/><stop stop-opacity="1" stop-color="rgb(14.793396%, 69.78302%, 88.519287%)" offset="0.5625"/><stop stop-opacity="1" stop-color="rgb(14.964294%, 70.170593%, 88.825989%)" offset="0.570313"/><stop stop-opacity="1" stop-color="rgb(15.135193%, 70.559692%, 89.13269%)" offset="0.578125"/><stop stop-opacity="1" stop-color="rgb(15.306091%, 70.947266%, 89.439392%)" offset="0.585938"/><stop stop-opacity="1" stop-color="rgb(15.478516%, 71.336365%, 89.74762%)" offset="0.59375"/><stop stop-opacity="1" stop-color="rgb(15.649414%, 71.723938%, 90.054321%)" offset="0.601563"/><stop stop-opacity="1" stop-color="rgb(15.820312%, 72.111511%, 90.361023%)" offset="0.609375"/><stop stop-opacity="1" stop-color="rgb(15.991211%, 72.50061%, 90.667725%)" offset="0.617188"/><stop stop-opacity="1" stop-color="rgb(16.163635%, 72.888184%, 90.974426%)" offset="0.625"/><stop stop-opacity="1" stop-color="rgb(16.334534%, 73.275757%, 91.281128%)" offset="0.632813"/><stop stop-opacity="1" stop-color="rgb(16.505432%, 73.664856%, 91.589355%)" offset="0.640625"/><stop stop-opacity="1" stop-color="rgb(16.676331%, 74.052429%, 91.896057%)" offset="0.648438"/><stop stop-opacity="1" stop-color="rgb(16.848755%, 74.441528%, 92.202759%)" offset="0.65625"/><stop stop-opacity="1" stop-color="rgb(17.019653%, 74.829102%, 92.50946%)" offset="0.664063"/><stop stop-opacity="1" stop-color="rgb(17.190552%, 75.216675%, 92.816162%)" offset="0.671875"/><stop stop-opacity="1" stop-color="rgb(17.362976%, 75.605774%, 93.122864%)" offset="0.679688"/><stop stop-opacity="1" stop-color="rgb(17.533875%, 75.993347%, 93.431091%)" offset="0.6875"/><stop stop-opacity="1" stop-color="rgb(17.704773%, 76.38092%, 93.737793%)" offset="0.695313"/><stop stop-opacity="1" stop-color="rgb(17.875671%, 76.77002%, 94.044495%)" offset="0.703125"/><stop stop-opacity="1" stop-color="rgb(18.048096%, 77.157593%, 94.351196%)" offset="0.710938"/><stop stop-opacity="1" stop-color="rgb(18.218994%, 77.546692%, 94.657898%)" offset="0.71875"/><stop stop-opacity="1" stop-color="rgb(18.389893%, 77.934265%, 94.9646%)" offset="0.726563"/><stop stop-opacity="1" stop-color="rgb(18.560791%, 78.321838%, 95.272827%)" offset="0.734375"/><stop stop-opacity="1" stop-color="rgb(18.733215%, 78.710938%, 95.579529%)" offset="0.742188"/><stop stop-opacity="1" stop-color="rgb(18.904114%, 79.098511%, 95.88623%)" offset="0.75"/><stop stop-opacity="1" stop-color="rgb(19.075012%, 79.486084%, 96.192932%)" offset="0.757813"/><stop stop-opacity="1" stop-color="rgb(19.245911%, 79.875183%, 96.499634%)" offset="0.765625"/><stop stop-opacity="1" stop-color="rgb(19.418335%, 80.262756%, 96.806335%)" offset="0.773438"/><stop stop-opacity="1" stop-color="rgb(19.589233%, 80.651855%, 97.114563%)" offset="0.78125"/><stop stop-opacity="1" stop-color="rgb(19.760132%, 81.039429%, 97.421265%)" offset="0.789063"/><stop stop-opacity="1" stop-color="rgb(19.93103%, 81.427002%, 97.727966%)" offset="0.796875"/><stop stop-opacity="1" stop-color="rgb(20.103455%, 81.816101%, 98.034668%)" offset="0.804688"/><stop stop-opacity="1" stop-color="rgb(20.274353%, 82.203674%, 98.34137%)" offset="0.8125"/><stop stop-opacity="1" stop-color="rgb(20.445251%, 82.591248%, 98.648071%)" offset="0.820313"/><stop stop-opacity="1" stop-color="rgb(20.617676%, 82.980347%, 98.956299%)" offset="0.828125"/><stop stop-opacity="1" stop-color="rgb(20.788574%, 83.36792%, 99.263%)" offset="0.835938"/><stop stop-opacity="1" stop-color="rgb(20.959473%, 83.757019%, 99.569702%)" offset="0.84375"/><stop stop-opacity="1" stop-color="rgb(21.121216%, 84.124756%, 99.861145%)" offset="0.875"/><stop stop-opacity="1" stop-color="rgb(21.199036%, 84.298706%, 100%)" offset="1"/></linearGradient><clipPath id="9bba463fcc"><path d="M 13 43 L 66 43 L 66 100.628906 L 13 100.628906 Z M 13 43 " clip-rule="nonzero"/></clipPath><clipPath id="8108579db9"><path d="M 63.222656 43.898438 C 60.628906 66.9375 2.667969 65.195312 15.765625 100.765625 C 18.929688 68.824219 76.03125 68.183594 63.222656 43.898438 Z M 63.222656 43.898438 " clip-rule="evenodd"/></clipPath><linearGradient x1="-128.190039" gradientTransform="matrix(-0.0853257, 0, 0, 0.0853257, 65.09312, 8.815419)" y1="744.40198" x2="731.600022" gradientUnits="userSpaceOnUse" y2="744.40198" id="430bbe8ea2"><stop stop-opacity="1" stop-color="rgb(3.898621%, 45.098877%, 68.998718%)" offset="0"/><stop stop-opacity="1" stop-color="rgb(3.898621%, 45.098877%, 68.998718%)" offset="0.125"/><stop stop-opacity="1" stop-color="rgb(3.898621%, 45.098877%, 68.998718%)" offset="0.140625"/><stop stop-opacity="1" stop-color="rgb(3.898621%, 45.098877%, 68.998718%)" offset="0.148438"/><stop stop-opacity="1" stop-color="rgb(3.987122%, 45.298767%, 69.15741%)" offset="0.152344"/><stop stop-opacity="1" stop-color="rgb(4.077148%, 45.500183%, 69.316101%)" offset="0.15625"/><stop stop-opacity="1" stop-color="rgb(4.173279%, 45.71991%, 69.490051%)" offset="0.160156"/><stop stop-opacity="1" stop-color="rgb(4.269409%, 45.939636%, 69.664001%)" offset="0.164062"/><stop stop-opacity="1" stop-color="rgb(4.36554%, 46.157837%, 69.836426%)" offset="0.167969"/><stop stop-opacity="1" stop-color="rgb(4.463196%, 46.377563%, 70.010376%)" offset="0.171875"/><stop stop-opacity="1" stop-color="rgb(4.559326%, 46.595764%, 70.1828%)" offset="0.175781"/><stop stop-opacity="1" stop-color="rgb(4.656982%, 46.815491%, 70.35675%)" offset="0.179688"/><stop stop-opacity="1" stop-color="rgb(4.753113%, 47.035217%, 70.529175%)" offset="0.183594"/><stop stop-opacity="1" stop-color="rgb(4.850769%, 47.254944%, 70.703125%)" offset="0.1875"/><stop stop-opacity="1" stop-color="rgb(4.946899%, 47.473145%, 70.875549%)" offset="0.191406"/><stop stop-opacity="1" stop-color="rgb(5.04303%, 47.692871%, 71.0495%)" offset="0.195312"/><stop stop-opacity="1" stop-color="rgb(5.13916%, 47.911072%, 71.22345%)" offset="0.199219"/><stop stop-opacity="1" stop-color="rgb(5.236816%, 48.130798%, 71.3974%)" offset="0.203125"/><stop stop-opacity="1" stop-color="rgb(5.332947%, 48.348999%, 71.569824%)" offset="0.207031"/><stop stop-opacity="1" stop-color="rgb(5.430603%, 48.568726%, 71.743774%)" offset="0.210938"/><stop stop-opacity="1" stop-color="rgb(5.526733%, 48.788452%, 71.916199%)" offset="0.214844"/><stop stop-opacity="1" stop-color="rgb(5.62439%, 49.008179%, 72.090149%)" offset="0.21875"/><stop stop-opacity="1" stop-color="rgb(5.72052%, 49.226379%, 72.262573%)" offset="0.222656"/><stop stop-opacity="1" stop-color="rgb(5.818176%, 49.446106%, 72.436523%)" offset="0.226562"/><stop stop-opacity="1" stop-color="rgb(5.914307%, 49.664307%, 72.608948%)" offset="0.230469"/><stop stop-opacity="1" stop-color="rgb(6.010437%, 49.884033%, 72.782898%)" offset="0.234375"/><stop stop-opacity="1" stop-color="rgb(6.106567%, 50.10376%, 72.956848%)" offset="0.238281"/><stop stop-opacity="1" stop-color="rgb(6.204224%, 50.323486%, 73.130798%)" offset="0.242188"/><stop stop-opacity="1" stop-color="rgb(6.300354%, 50.541687%, 73.303223%)" offset="0.246094"/><stop stop-opacity="1" stop-color="rgb(6.39801%, 50.761414%, 73.477173%)" offset="0.25"/><stop stop-opacity="1" stop-color="rgb(6.494141%, 50.979614%, 73.649597%)" offset="0.253906"/><stop stop-opacity="1" stop-color="rgb(6.591797%, 51.199341%, 73.823547%)" offset="0.257812"/><stop stop-opacity="1" stop-color="rgb(6.687927%, 51.417542%, 73.995972%)" offset="0.261719"/><stop stop-opacity="1" stop-color="rgb(6.785583%, 51.637268%, 74.169922%)" offset="0.265625"/><stop stop-opacity="1" stop-color="rgb(6.881714%, 51.856995%, 74.342346%)" offset="0.269531"/><stop stop-opacity="1" stop-color="rgb(6.977844%, 52.076721%, 74.516296%)" offset="0.273438"/><stop stop-opacity="1" stop-color="rgb(7.073975%, 52.294922%, 74.688721%)" offset="0.277344"/><stop stop-opacity="1" stop-color="rgb(7.171631%, 52.514648%, 74.862671%)" offset="0.28125"/><stop stop-opacity="1" stop-color="rgb(7.267761%, 52.732849%, 75.036621%)" offset="0.285156"/><stop stop-opacity="1" stop-color="rgb(7.365417%, 52.952576%, 75.210571%)" offset="0.289062"/><stop stop-opacity="1" stop-color="rgb(7.461548%, 53.172302%, 75.382996%)" offset="0.292969"/><stop stop-opacity="1" stop-color="rgb(7.559204%, 53.392029%, 75.556946%)" offset="0.296875"/><stop stop-opacity="1" stop-color="rgb(7.655334%, 53.610229%, 75.72937%)" offset="0.300781"/><stop stop-opacity="1" stop-color="rgb(7.751465%, 53.829956%, 75.90332%)" offset="0.304688"/><stop stop-opacity="1" stop-color="rgb(7.847595%, 54.048157%, 76.075745%)" offset="0.308594"/><stop stop-opacity="1" stop-color="rgb(7.945251%, 54.267883%, 76.249695%)" offset="0.3125"/><stop stop-opacity="1" stop-color="rgb(8.041382%, 54.486084%, 76.422119%)" offset="0.316406"/><stop stop-opacity="1" stop-color="rgb(8.139038%, 54.705811%, 76.596069%)" offset="0.320312"/><stop stop-opacity="1" stop-color="rgb(8.235168%, 54.925537%, 76.77002%)" offset="0.324219"/><stop stop-opacity="1" stop-color="rgb(8.332825%, 55.145264%, 76.94397%)" offset="0.328125"/><stop stop-opacity="1" stop-color="rgb(8.428955%, 55.363464%, 77.116394%)" offset="0.332031"/><stop stop-opacity="1" stop-color="rgb(8.526611%, 55.583191%, 77.290344%)" offset="0.335938"/><stop stop-opacity="1" stop-color="rgb(8.622742%, 55.801392%, 77.462769%)" offset="0.339844"/><stop stop-opacity="1" stop-color="rgb(8.718872%, 56.021118%, 77.636719%)" offset="0.34375"/><stop stop-opacity="1" stop-color="rgb(8.815002%, 56.240845%, 77.809143%)" offset="0.347656"/><stop stop-opacity="1" stop-color="rgb(8.912659%, 56.460571%, 77.983093%)" offset="0.351562"/><stop stop-opacity="1" stop-color="rgb(9.008789%, 56.678772%, 78.155518%)" offset="0.355469"/><stop stop-opacity="1" stop-color="rgb(9.106445%, 56.898499%, 78.329468%)" offset="0.359375"/><stop stop-opacity="1" stop-color="rgb(9.202576%, 57.116699%, 78.503418%)" offset="0.363281"/><stop stop-opacity="1" stop-color="rgb(9.300232%, 57.336426%, 78.677368%)" offset="0.367187"/><stop stop-opacity="1" stop-color="rgb(9.396362%, 57.554626%, 78.849792%)" offset="0.371094"/><stop stop-opacity="1" stop-color="rgb(9.494019%, 57.774353%, 79.023743%)" offset="0.375"/><stop stop-opacity="1" stop-color="rgb(9.590149%, 57.99408%, 79.196167%)" offset="0.378906"/><stop stop-opacity="1" stop-color="rgb(9.686279%, 58.213806%, 79.370117%)" offset="0.382813"/><stop stop-opacity="1" stop-color="rgb(9.78241%, 58.432007%, 79.542542%)" offset="0.386719"/><stop stop-opacity="1" stop-color="rgb(9.880066%, 58.651733%, 79.716492%)" offset="0.390625"/><stop stop-opacity="1" stop-color="rgb(9.976196%, 58.869934%, 79.888916%)" offset="0.394531"/><stop stop-opacity="1" stop-color="rgb(10.073853%, 59.089661%, 80.062866%)" offset="0.398438"/><stop stop-opacity="1" stop-color="rgb(10.169983%, 59.309387%, 80.236816%)" offset="0.402344"/><stop stop-opacity="1" stop-color="rgb(10.267639%, 59.529114%, 80.410767%)" offset="0.40625"/><stop stop-opacity="1" stop-color="rgb(10.36377%, 59.747314%, 80.583191%)" offset="0.410156"/><stop stop-opacity="1" stop-color="rgb(10.461426%, 59.967041%, 80.757141%)" offset="0.414062"/><stop stop-opacity="1" stop-color="rgb(10.557556%, 60.185242%, 80.929565%)" offset="0.417969"/><stop stop-opacity="1" stop-color="rgb(10.653687%, 60.404968%, 81.103516%)" offset="0.421875"/><stop stop-opacity="1" stop-color="rgb(10.749817%, 60.623169%, 81.27594%)" offset="0.425781"/><stop stop-opacity="1" stop-color="rgb(10.847473%, 60.842896%, 81.44989%)" offset="0.429688"/><stop stop-opacity="1" stop-color="rgb(10.943604%, 61.062622%, 81.622314%)" offset="0.433594"/><stop stop-opacity="1" stop-color="rgb(11.04126%, 61.282349%, 81.796265%)" offset="0.4375"/><stop stop-opacity="1" stop-color="rgb(11.13739%, 61.500549%, 81.970215%)" offset="0.441406"/><stop stop-opacity="1" stop-color="rgb(11.235046%, 61.720276%, 82.144165%)" offset="0.445312"/><stop stop-opacity="1" stop-color="rgb(11.331177%, 61.938477%, 82.316589%)" offset="0.449219"/><stop stop-opacity="1" stop-color="rgb(11.427307%, 62.158203%, 82.49054%)" offset="0.453125"/><stop stop-opacity="1" stop-color="rgb(11.523438%, 62.37793%, 82.662964%)" offset="0.457031"/><stop stop-opacity="1" stop-color="rgb(11.621094%, 62.597656%, 82.836914%)" offset="0.460938"/><stop stop-opacity="1" stop-color="rgb(11.717224%, 62.815857%, 83.009338%)" offset="0.464844"/><stop stop-opacity="1" stop-color="rgb(11.81488%, 63.035583%, 83.183289%)" offset="0.46875"/><stop stop-opacity="1" stop-color="rgb(11.911011%, 63.253784%, 83.355713%)" offset="0.472656"/><stop stop-opacity="1" stop-color="rgb(12.008667%, 63.473511%, 83.529663%)" offset="0.476562"/><stop stop-opacity="1" stop-color="rgb(12.104797%, 63.691711%, 83.702087%)" offset="0.480469"/><stop stop-opacity="1" stop-color="rgb(12.202454%, 63.911438%, 83.876038%)" offset="0.484375"/><stop stop-opacity="1" stop-color="rgb(12.298584%, 64.131165%, 84.049988%)" offset="0.488281"/><stop stop-opacity="1" stop-color="rgb(12.394714%, 64.350891%, 84.223938%)" offset="0.492187"/><stop stop-opacity="1" stop-color="rgb(12.490845%, 64.569092%, 84.396362%)" offset="0.496094"/><stop stop-opacity="1" stop-color="rgb(12.588501%, 64.788818%, 84.570312%)" offset="0.5"/><stop stop-opacity="1" stop-color="rgb(12.684631%, 65.007019%, 84.742737%)" offset="0.503906"/><stop stop-opacity="1" stop-color="rgb(12.782288%, 65.226746%, 84.916687%)" offset="0.507812"/><stop stop-opacity="1" stop-color="rgb(12.878418%, 65.446472%, 85.089111%)" offset="0.511719"/><stop stop-opacity="1" stop-color="rgb(12.976074%, 65.666199%, 85.263062%)" offset="0.515625"/><stop stop-opacity="1" stop-color="rgb(13.072205%, 65.884399%, 85.435486%)" offset="0.519531"/><stop stop-opacity="1" stop-color="rgb(13.169861%, 66.104126%, 85.609436%)" offset="0.523438"/><stop stop-opacity="1" stop-color="rgb(13.265991%, 66.322327%, 85.783386%)" offset="0.527344"/><stop stop-opacity="1" stop-color="rgb(13.362122%, 66.542053%, 85.957336%)" offset="0.53125"/><stop stop-opacity="1" stop-color="rgb(13.458252%, 66.760254%, 86.129761%)" offset="0.535156"/><stop stop-opacity="1" stop-color="rgb(13.555908%, 66.97998%, 86.303711%)" offset="0.539062"/><stop stop-opacity="1" stop-color="rgb(13.652039%, 67.199707%, 86.476135%)" offset="0.542969"/><stop stop-opacity="1" stop-color="rgb(13.749695%, 67.419434%, 86.650085%)" offset="0.546875"/><stop stop-opacity="1" stop-color="rgb(13.845825%, 67.637634%, 86.82251%)" offset="0.550781"/><stop stop-opacity="1" stop-color="rgb(13.943481%, 67.857361%, 86.99646%)" offset="0.554688"/><stop stop-opacity="1" stop-color="rgb(14.039612%, 68.075562%, 87.168884%)" offset="0.558594"/><stop stop-opacity="1" stop-color="rgb(14.135742%, 68.295288%, 87.342834%)" offset="0.5625"/><stop stop-opacity="1" stop-color="rgb(14.231873%, 68.515015%, 87.516785%)" offset="0.566406"/><stop stop-opacity="1" stop-color="rgb(14.329529%, 68.734741%, 87.690735%)" offset="0.570312"/><stop stop-opacity="1" stop-color="rgb(14.425659%, 68.952942%, 87.863159%)" offset="0.574219"/><stop stop-opacity="1" stop-color="rgb(14.523315%, 69.172668%, 88.037109%)" offset="0.578125"/><stop stop-opacity="1" stop-color="rgb(14.619446%, 69.390869%, 88.209534%)" offset="0.582031"/><stop stop-opacity="1" stop-color="rgb(14.717102%, 69.610596%, 88.383484%)" offset="0.585938"/><stop stop-opacity="1" stop-color="rgb(14.813232%, 69.828796%, 88.555908%)" offset="0.589844"/><stop stop-opacity="1" stop-color="rgb(14.910889%, 70.048523%, 88.729858%)" offset="0.59375"/><stop stop-opacity="1" stop-color="rgb(15.007019%, 70.26825%, 88.902283%)" offset="0.597656"/><stop stop-opacity="1" stop-color="rgb(15.103149%, 70.487976%, 89.076233%)" offset="0.601562"/><stop stop-opacity="1" stop-color="rgb(15.19928%, 70.706177%, 89.250183%)" offset="0.605469"/><stop stop-opacity="1" stop-color="rgb(15.296936%, 70.925903%, 89.424133%)" offset="0.609375"/><stop stop-opacity="1" stop-color="rgb(15.393066%, 71.144104%, 89.596558%)" offset="0.613281"/><stop stop-opacity="1" stop-color="rgb(15.490723%, 71.363831%, 89.770508%)" offset="0.617188"/><stop stop-opacity="1" stop-color="rgb(15.586853%, 71.583557%, 89.942932%)" offset="0.621094"/><stop stop-opacity="1" stop-color="rgb(15.684509%, 71.803284%, 90.116882%)" offset="0.625"/><stop stop-opacity="1" stop-color="rgb(15.78064%, 72.021484%, 90.289307%)" offset="0.628906"/><stop stop-opacity="1" stop-color="rgb(15.878296%, 72.241211%, 90.463257%)" offset="0.632812"/><stop stop-opacity="1" stop-color="rgb(15.974426%, 72.459412%, 90.635681%)" offset="0.636719"/><stop stop-opacity="1" stop-color="rgb(16.070557%, 72.679138%, 90.809631%)" offset="0.640625"/><stop stop-opacity="1" stop-color="rgb(16.166687%, 72.897339%, 90.983582%)" offset="0.644531"/><stop stop-opacity="1" stop-color="rgb(16.264343%, 73.117065%, 91.157532%)" offset="0.648438"/><stop stop-opacity="1" stop-color="rgb(16.360474%, 73.336792%, 91.329956%)" offset="0.652344"/><stop stop-opacity="1" stop-color="rgb(16.45813%, 73.556519%, 91.503906%)" offset="0.65625"/><stop stop-opacity="1" stop-color="rgb(16.55426%, 73.774719%, 91.676331%)" offset="0.660156"/><stop stop-opacity="1" stop-color="rgb(16.651917%, 73.994446%, 91.850281%)" offset="0.664062"/><stop stop-opacity="1" stop-color="rgb(16.748047%, 74.212646%, 92.022705%)" offset="0.667969"/><stop stop-opacity="1" stop-color="rgb(16.845703%, 74.432373%, 92.196655%)" offset="0.671875"/><stop stop-opacity="1" stop-color="rgb(16.941833%, 74.6521%, 92.36908%)" offset="0.675781"/><stop stop-opacity="1" stop-color="rgb(17.037964%, 74.871826%, 92.54303%)" offset="0.679688"/><stop stop-opacity="1" stop-color="rgb(17.134094%, 75.090027%, 92.715454%)" offset="0.683594"/><stop stop-opacity="1" stop-color="rgb(17.23175%, 75.309753%, 92.889404%)" offset="0.6875"/><stop stop-opacity="1" stop-color="rgb(17.327881%, 75.527954%, 93.063354%)" offset="0.691406"/><stop stop-opacity="1" stop-color="rgb(17.425537%, 75.747681%, 93.237305%)" offset="0.695312"/><stop stop-opacity="1" stop-color="rgb(17.521667%, 75.965881%, 93.409729%)" offset="0.699219"/><stop stop-opacity="1" stop-color="rgb(17.619324%, 76.185608%, 93.583679%)" offset="0.703125"/><stop stop-opacity="1" stop-color="rgb(17.715454%, 76.405334%, 93.756104%)" offset="0.707031"/><stop stop-opacity="1" stop-color="rgb(17.811584%, 76.625061%, 93.930054%)" offset="0.710938"/><stop stop-opacity="1" stop-color="rgb(17.907715%, 76.843262%, 94.102478%)" offset="0.714844"/><stop stop-opacity="1" stop-color="rgb(18.005371%, 77.062988%, 94.276428%)" offset="0.71875"/><stop stop-opacity="1" stop-color="rgb(18.101501%, 77.281189%, 94.448853%)" offset="0.722656"/><stop stop-opacity="1" stop-color="rgb(18.199158%, 77.500916%, 94.622803%)" offset="0.726562"/><stop stop-opacity="1" stop-color="rgb(18.295288%, 77.720642%, 94.796753%)" offset="0.730469"/><stop stop-opacity="1" stop-color="rgb(18.392944%, 77.940369%, 94.970703%)" offset="0.734375"/><stop stop-opacity="1" stop-color="rgb(18.489075%, 78.158569%, 95.143127%)" offset="0.738281"/><stop stop-opacity="1" stop-color="rgb(18.586731%, 78.378296%, 95.317078%)" offset="0.742188"/><stop stop-opacity="1" stop-color="rgb(18.682861%, 78.596497%, 95.489502%)" offset="0.746094"/><stop stop-opacity="1" stop-color="rgb(18.778992%, 78.816223%, 95.663452%)" offset="0.75"/><stop stop-opacity="1" stop-color="rgb(18.875122%, 79.03595%, 95.835876%)" offset="0.753906"/><stop stop-opacity="1" stop-color="rgb(18.972778%, 79.255676%, 96.009827%)" offset="0.757812"/><stop stop-opacity="1" stop-color="rgb(19.068909%, 79.473877%, 96.182251%)" offset="0.761719"/><stop stop-opacity="1" stop-color="rgb(19.166565%, 79.693604%, 96.356201%)" offset="0.765625"/><stop stop-opacity="1" stop-color="rgb(19.262695%, 79.911804%, 96.530151%)" offset="0.769531"/><stop stop-opacity="1" stop-color="rgb(19.360352%, 80.131531%, 96.704102%)" offset="0.773438"/><stop stop-opacity="1" stop-color="rgb(19.456482%, 80.349731%, 96.876526%)" offset="0.777344"/><stop stop-opacity="1" stop-color="rgb(19.554138%, 80.569458%, 97.050476%)" offset="0.78125"/><stop stop-opacity="1" stop-color="rgb(19.650269%, 80.789185%, 97.2229%)" offset="0.785156"/><stop stop-opacity="1" stop-color="rgb(19.746399%, 81.008911%, 97.396851%)" offset="0.789062"/><stop stop-opacity="1" stop-color="rgb(19.842529%, 81.227112%, 97.569275%)" offset="0.792969"/><stop stop-opacity="1" stop-color="rgb(19.940186%, 81.446838%, 97.743225%)" offset="0.796875"/><stop stop-opacity="1" stop-color="rgb(20.036316%, 81.665039%, 97.915649%)" offset="0.800781"/><stop stop-opacity="1" stop-color="rgb(20.133972%, 81.884766%, 98.0896%)" offset="0.804688"/><stop stop-opacity="1" stop-color="rgb(20.230103%, 82.104492%, 98.26355%)" offset="0.808594"/><stop stop-opacity="1" stop-color="rgb(20.327759%, 82.324219%, 98.4375%)" offset="0.8125"/><stop stop-opacity="1" stop-color="rgb(20.423889%, 82.542419%, 98.609924%)" offset="0.816406"/><stop stop-opacity="1" stop-color="rgb(20.52002%, 82.762146%, 98.783875%)" offset="0.820312"/><stop stop-opacity="1" stop-color="rgb(20.61615%, 82.980347%, 98.956299%)" offset="0.824219"/><stop stop-opacity="1" stop-color="rgb(20.713806%, 83.200073%, 99.130249%)" offset="0.828125"/><stop stop-opacity="1" stop-color="rgb(20.809937%, 83.418274%, 99.302673%)" offset="0.832031"/><stop stop-opacity="1" stop-color="rgb(20.907593%, 83.638%, 99.476624%)" offset="0.835937"/><stop stop-opacity="1" stop-color="rgb(21.003723%, 83.857727%, 99.649048%)" offset="0.839844"/><stop stop-opacity="1" stop-color="rgb(21.101379%, 84.077454%, 99.822998%)" offset="0.84375"/><stop stop-opacity="1" stop-color="rgb(21.150208%, 84.187317%, 99.911499%)" offset="0.875"/><stop stop-opacity="1" stop-color="rgb(21.199036%, 84.298706%, 100%)" offset="1"/></linearGradient><clipPath id="3099477b47"><path d="M 225 20 L 411.339844 20 L 411.339844 89 L 225 89 Z M 225 20 " clip-rule="nonzero"/></clipPath></defs><g clip-path="url(#c8aca77724)"><g clip-path="url(#6d68ca062a)"><path fill="#666666" d="M 58.9375 8.816406 L 58.9375 41.851562 L 16.152344 41.851562 L 16.152344 8.816406 Z M 58.9375 8.816406 " fill-opacity="1" fill-rule="nonzero"/></g></g><g clip-path="url(#7f65c93def)"><g clip-path="url(#e7e6f3d9a0)"><path fill="#666666" d="M 55.964844 15.480469 L 55.964844 47.523438 L 13.683594 47.523438 L 13.683594 15.480469 Z M 55.964844 15.480469 " fill-opacity="1" fill-rule="nonzero"/></g></g><g clip-path="url(#4f2ab0d680)"><g clip-path="url(#03f6eeba41)"><path fill="url(#66794aa8b2)" d="M 65.992188 36.671875 L 65.992188 91.636719 L 0.664062 91.636719 L 0.664062 36.671875 Z M 65.992188 36.671875 " fill-rule="nonzero"/></g></g><g clip-path="url(#9bba463fcc)"><g clip-path="url(#8108579db9)"><path fill="url(#430bbe8ea2)" d="M 76.03125 43.898438 L 76.03125 100.628906 L 2.667969 100.628906 L 2.667969 43.898438 Z M 76.03125 43.898438 " fill-rule="nonzero"/></g></g><path stroke-linecap="butt" transform="matrix(0.737465, 0, 0, 0.737465, 44.463172, 1.903299)" fill="none" stroke-linejoin="miter" d="M 30.660512 65.785749 L 45.062684 65.785749 L 47.975959 52.480028 L 42.551971 45.414012 L 62.150365 45.414012 L 51.122296 95.956683 L 38.452198 95.956683 L 42.917454 75.537274 L 39.638696 75.537274 Z M 15.527373 95.956683 L 25.056431 52.480028 L 19.632442 45.414012 L 39.273212 45.414012 L 35.263486 63.825909 L 25.602008 63.825909 L 33.441365 72.210844 L 28.245142 95.956683 Z M 67.071152 45.414012 L 86.711921 45.414012 L 75.683852 95.956683 L 62.966082 95.956683 L 72.447468 52.480028 Z M 128.864361 59.863855 L 116.151888 59.863855 L 117.152995 55.165537 L 113.964284 55.165537 L 105.076147 95.956683 L 92.316003 95.956683 L 101.246515 55.165537 L 95.276949 55.165537 L 87.622982 45.414012 L 132.010697 45.414012 Z M 175.619774 45.414012 L 172.431062 59.863855 L 159.808637 59.863855 L 160.809744 55.165537 L 155.613521 55.165537 L 153.33587 65.510312 L 169.602537 65.510312 L 156.386863 75.267134 L 151.195937 75.267134 L 148.822942 86.19986 L 154.019165 86.19986 L 155.067944 81.464464 L 167.738041 81.464464 L 164.544033 95.956683 L 133.96524 95.956683 L 143.494297 52.480028 L 138.070309 45.414012 Z M 218.863368 45.414012 C 219.228851 45.414012 219.610225 45.53584 220.00749 45.779495 C 220.399458 46.054932 220.749051 46.356853 221.050972 46.690556 C 221.326409 47.024258 221.554174 47.389742 221.734268 47.787007 C 221.919658 48.120709 221.977923 48.438521 221.919658 48.740442 L 217.772214 67.745588 L 206.654097 60.774916 L 207.835298 55.165537 L 198.814739 55.165537 L 192.02416 86.19986 L 201.050016 86.19986 L 203.370042 75.765039 L 214.493455 82.783383 L 211.574883 95.956683 L 180.996091 95.956683 C 180.662388 95.956683 180.281014 95.834855 179.857265 95.591199 C 179.677172 95.43759 179.502375 95.294575 179.332876 95.156856 C 179.163376 95.019138 179.00447 94.860232 178.856158 94.680139 C 178.522455 94.372921 178.29469 94.007437 178.172862 93.583688 C 177.987472 93.249986 177.929207 92.932174 177.987472 92.630253 L 188.289872 45.414012 Z M 238.276372 65.785749 L 252.678544 65.785749 L 255.597116 52.480028 L 250.173127 45.414012 L 269.766225 45.414012 L 258.738156 95.956683 L 246.073355 95.956683 L 250.538611 75.537274 L 247.254556 75.537274 Z M 223.14853 95.956683 L 232.672291 52.480028 L 227.248302 45.414012 L 246.889072 45.414012 L 242.879346 63.825909 L 233.217867 63.825909 L 241.057225 72.210844 L 235.861002 95.956683 Z M 223.14853 95.956683 " stroke="#ffffff" stroke-width="3.616669" stroke-opacity="1" stroke-miterlimit="4"/><g fill="#0b398c" fill-opacity="1"><g transform="translate(55.882353, 72.699914)"><g><path d="M 11.1875 -22.28125 L 21.8125 -22.28125 L 23.96875 -32.09375 L 19.96875 -37.296875 L 34.421875 -37.296875 L 26.28125 -0.03125 L 16.9375 -0.03125 L 20.234375 -15.09375 L 17.8125 -15.09375 Z M 0.03125 -0.03125 L 7.0625 -32.09375 L 3.0625 -37.296875 L 17.546875 -37.296875 L 14.578125 -23.734375 L 7.453125 -23.734375 L 13.234375 -17.546875 L 9.40625 -0.03125 Z M 0.03125 -0.03125 "/></g></g></g><g fill="#0b398c" fill-opacity="1"><g transform="translate(90.86677, 72.699914)"><g><path d="M 3.0625 -37.296875 L 17.546875 -37.296875 L 9.40625 -0.03125 L 0.03125 -0.03125 L 7.03125 -32.09375 Z M 3.0625 -37.296875 "/></g></g></g><g fill="#0b398c" fill-opacity="1"><g transform="translate(109.047916, 72.699914)"><g><path d="M 30.453125 -26.65625 L 21.078125 -26.65625 L 21.8125 -30.109375 L 19.453125 -30.109375 L 12.90625 -0.03125 L 3.5 -0.03125 L 10.078125 -30.109375 L 5.671875 -30.109375 L 0.03125 -37.296875 L 32.765625 -37.296875 Z M 30.453125 -26.65625 "/></g></g></g><g fill="#0b398c" fill-opacity="1"><g transform="translate(143.225776, 72.699914)"><g><path d="M 30.75 -37.296875 L 28.390625 -26.65625 L 19.09375 -26.65625 L 19.828125 -30.109375 L 16 -30.109375 L 14.3125 -22.484375 L 26.3125 -22.484375 L 16.5625 -15.296875 L 12.734375 -15.296875 L 10.984375 -7.21875 L 14.828125 -7.21875 L 15.59375 -10.71875 L 24.9375 -10.71875 L 22.578125 -0.03125 L 0.03125 -0.03125 L 7.0625 -32.09375 L 3.0625 -37.296875 Z M 30.75 -37.296875 "/></g></g></g><g fill="#0b398c" fill-opacity="1"><g transform="translate(174.513473, 72.699914)"><g><path d="M 31.359375 -37.296875 C 31.628906 -37.296875 31.910156 -37.207031 32.203125 -37.03125 C 32.492188 -36.832031 32.75 -36.609375 32.96875 -36.359375 C 33.164062 -36.117188 33.332031 -35.851562 33.46875 -35.5625 C 33.601562 -35.3125 33.648438 -35.070312 33.609375 -34.84375 L 30.546875 -20.84375 L 22.34375 -25.984375 L 23.21875 -30.109375 L 16.5625 -30.109375 L 11.5625 -7.21875 L 18.21875 -7.21875 L 19.921875 -14.921875 L 28.125 -9.75 L 25.984375 -0.03125 L 3.421875 -0.03125 C 3.179688 -0.03125 2.90625 -0.117188 2.59375 -0.296875 C 2.457031 -0.410156 2.328125 -0.515625 2.203125 -0.609375 C 2.078125 -0.710938 1.957031 -0.832031 1.84375 -0.96875 C 1.601562 -1.195312 1.4375 -1.46875 1.34375 -1.78125 C 1.207031 -2.03125 1.160156 -2.265625 1.203125 -2.484375 L 8.8125 -37.296875 Z M 31.359375 -37.296875 "/></g></g></g><g fill="#0b398c" fill-opacity="1"><g transform="translate(208.993787, 72.699914)"><g><path d="M 11.1875 -22.28125 L 21.8125 -22.28125 L 23.96875 -32.09375 L 19.96875 -37.296875 L 34.421875 -37.296875 L 26.28125 -0.03125 L 16.9375 -0.03125 L 20.234375 -15.09375 L 17.8125 -15.09375 Z M 0.03125 -0.03125 L 7.0625 -32.09375 L 3.0625 -37.296875 L 17.546875 -37.296875 L 14.578125 -23.734375 L 7.453125 -23.734375 L 13.234375 -17.546875 L 9.40625 -0.03125 Z M 0.03125 -0.03125 "/></g></g></g><g clip-path="url(#3099477b47)"><path stroke-linecap="butt" transform="matrix(0.737465, 0, 0, 0.737465, 229.543407, 2.451536)" fill="none" stroke-linejoin="miter" d="M 55.658847 45.417462 C 56.024331 45.417462 56.400408 45.53929 56.797673 45.782946 C 57.194938 46.053086 57.544531 46.360304 57.846452 46.694006 C 58.121889 47.027709 58.349654 47.393192 58.529747 47.78516 C 58.709841 48.118863 58.773403 48.436674 58.709841 48.743893 L 54.562397 67.743742 L 43.44428 60.773069 L 44.630778 55.168988 L 35.604922 55.168988 L 28.81964 86.203311 L 37.840199 86.203311 L 40.165522 75.76849 L 51.283638 82.786834 L 48.365066 95.954836 L 17.786274 95.954836 C 17.452571 95.954836 17.076494 95.833009 16.647448 95.589353 C 16.467355 95.435744 16.292558 95.292729 16.123059 95.15501 C 15.958856 95.022589 15.79995 94.858386 15.646341 94.678292 C 15.312638 94.376371 15.084873 94.010888 14.963045 93.587139 C 14.782952 93.248139 14.71939 92.930327 14.782952 92.628406 L 25.080055 45.417462 Z M 64.043782 45.417462 L 83.732224 45.417462 L 74.796415 86.203311 L 80.04031 86.203311 L 81.089089 81.462618 L 93.711514 81.462618 L 90.565177 95.954836 L 59.94401 95.954836 L 69.46777 52.478181 Z M 106.561705 45.417462 L 137.140498 45.417462 C 137.564247 45.417462 137.945621 45.53929 138.279323 45.782946 C 138.491198 45.899477 138.681885 46.037195 138.846088 46.190804 C 139.015588 46.344413 139.174493 46.492726 139.328102 46.646335 C 139.598242 47.011818 139.826008 47.377302 140.011398 47.737488 C 140.191491 48.134753 140.255054 48.468456 140.191491 48.743893 L 129.846717 95.954836 L 99.267924 95.954836 C 98.902441 95.954836 98.526363 95.817118 98.129099 95.541681 C 97.763615 95.303322 97.429913 95.011995 97.127991 94.678292 C 96.852554 94.34459 96.608899 93.979106 96.397024 93.587139 C 96.338759 93.401748 96.28579 93.226952 96.238118 93.062749 C 96.190446 92.893249 96.20104 92.750234 96.259306 92.628406 Z M 110.295994 86.203311 L 119.321849 86.203311 L 126.112428 55.168988 L 117.086573 55.168988 Z M 164.710672 45.417462 L 155.822535 86.203311 L 164.753047 86.203311 L 173.683559 45.417462 L 186.401328 45.417462 L 175.373258 95.954836 L 144.794466 95.954836 C 144.397201 95.954836 144.021123 95.817118 143.65564 95.541681 C 143.443765 95.42515 143.253078 95.287432 143.083579 95.133823 C 142.919376 94.980214 142.76047 94.831901 142.606861 94.678292 C 142.331424 94.312809 142.103659 93.947325 141.923566 93.587139 C 141.738175 93.221655 141.67991 92.898546 141.738175 92.628406 L 150.536266 52.435806 L 145.112277 45.417462 Z M 229.692593 45.417462 C 230.058077 45.417462 230.434154 45.53929 230.831419 45.782946 C 231.228683 46.053086 231.57298 46.360304 231.880198 46.694006 C 232.150338 47.027709 232.378103 47.393192 232.563493 47.78516 C 232.743586 48.118863 232.807149 48.436674 232.743586 48.743893 L 223.129779 92.628406 C 223.097998 92.872062 222.902014 93.189874 222.53653 93.587139 C 222.234609 93.979106 221.837344 94.34459 221.350033 94.678292 C 221.111674 94.858386 220.873315 95.022589 220.64555 95.15501 C 220.417785 95.292729 220.184723 95.435744 219.941067 95.589353 C 219.390194 95.833009 218.966444 95.954836 218.664523 95.954836 L 188.038059 95.954836 L 197.561819 52.478181 L 192.185503 45.417462 Z M 209.68634 55.168988 L 202.895761 86.203311 L 211.873944 86.203311 L 218.664523 55.168988 Z M 209.68634 55.168988 " stroke="#ffffff" stroke-width="3.616665" stroke-opacity="1" stroke-miterlimit="4"/></g><g fill="#1791c8" fill-opacity="1"><g transform="translate(239.234154, 73.24815)"><g><path d="M 31.359375 -37.296875 C 31.628906 -37.296875 31.910156 -37.207031 32.203125 -37.03125 C 32.492188 -36.832031 32.75 -36.609375 32.96875 -36.359375 C 33.164062 -36.117188 33.332031 -35.851562 33.46875 -35.5625 C 33.601562 -35.3125 33.648438 -35.070312 33.609375 -34.84375 L 30.546875 -20.84375 L 22.34375 -25.984375 L 23.21875 -30.109375 L 16.5625 -30.109375 L 11.5625 -7.21875 L 18.21875 -7.21875 L 19.921875 -14.921875 L 28.125 -9.75 L 25.984375 -0.03125 L 3.421875 -0.03125 C 3.179688 -0.03125 2.90625 -0.117188 2.59375 -0.296875 C 2.457031 -0.410156 2.328125 -0.515625 2.203125 -0.609375 C 2.078125 -0.710938 1.957031 -0.832031 1.84375 -0.96875 C 1.601562 -1.195312 1.4375 -1.46875 1.34375 -1.78125 C 1.207031 -2.03125 1.160156 -2.265625 1.203125 -2.484375 L 8.8125 -37.296875 Z M 31.359375 -37.296875 "/></g></g></g><g fill="#1791c8" fill-opacity="1"><g transform="translate(273.714468, 73.24815)"><g><path d="M 3.0625 -37.296875 L 17.578125 -37.296875 L 10.984375 -7.21875 L 14.859375 -7.21875 L 15.625 -10.71875 L 24.9375 -10.71875 L 22.625 -0.03125 L 0.03125 -0.03125 L 7.0625 -32.09375 Z M 3.0625 -37.296875 "/></g></g></g><g fill="#1791c8" fill-opacity="1"><g transform="translate(299.356266, 73.24815)"><g><path d="M 8.765625 -37.296875 L 31.328125 -37.296875 C 31.640625 -37.296875 31.914062 -37.207031 32.15625 -37.03125 C 32.3125 -36.945312 32.453125 -36.847656 32.578125 -36.734375 C 32.703125 -36.617188 32.820312 -36.503906 32.9375 -36.390625 C 33.132812 -36.128906 33.300781 -35.863281 33.4375 -35.59375 C 33.570312 -35.300781 33.617188 -35.050781 33.578125 -34.84375 L 25.9375 -0.03125 L 3.390625 -0.03125 C 3.117188 -0.03125 2.835938 -0.132812 2.546875 -0.34375 C 2.285156 -0.519531 2.039062 -0.726562 1.8125 -0.96875 C 1.613281 -1.21875 1.4375 -1.488281 1.28125 -1.78125 C 1.226562 -1.914062 1.1875 -2.046875 1.15625 -2.171875 C 1.125 -2.296875 1.128906 -2.398438 1.171875 -2.484375 Z M 11.53125 -7.21875 L 18.1875 -7.21875 L 23.1875 -30.109375 L 16.53125 -30.109375 Z M 11.53125 -7.21875 "/></g></g></g><g fill="#1791c8" fill-opacity="1"><g transform="translate(334.038219, 73.24815)"><g><path d="M 16.96875 -37.296875 L 10.421875 -7.21875 L 17 -7.21875 L 23.59375 -37.296875 L 32.96875 -37.296875 L 24.828125 -0.03125 L 2.28125 -0.03125 C 1.988281 -0.03125 1.707031 -0.132812 1.4375 -0.34375 C 1.28125 -0.425781 1.140625 -0.523438 1.015625 -0.640625 C 0.898438 -0.753906 0.785156 -0.863281 0.671875 -0.96875 C 0.472656 -1.238281 0.304688 -1.507812 0.171875 -1.78125 C 0.0351562 -2.050781 -0.0078125 -2.285156 0.03125 -2.484375 L 6.515625 -32.125 L 2.515625 -37.296875 Z M 16.96875 -37.296875 "/></g></g></g><g fill="#1791c8" fill-opacity="1"><g transform="translate(368.216079, 73.24815)"><g><path d="M 30.71875 -37.296875 C 30.988281 -37.296875 31.269531 -37.207031 31.5625 -37.03125 C 31.851562 -36.832031 32.109375 -36.609375 32.328125 -36.359375 C 32.535156 -36.117188 32.703125 -35.851562 32.828125 -35.5625 C 32.960938 -35.3125 33.007812 -35.070312 32.96875 -34.84375 L 25.875 -2.484375 C 25.851562 -2.304688 25.707031 -2.070312 25.4375 -1.78125 C 25.21875 -1.488281 24.925781 -1.21875 24.5625 -0.96875 C 24.382812 -0.832031 24.210938 -0.710938 24.046875 -0.609375 C 23.878906 -0.515625 23.707031 -0.410156 23.53125 -0.296875 C 23.125 -0.117188 22.804688 -0.03125 22.578125 -0.03125 L 0 -0.03125 L 7.03125 -32.09375 L 3.0625 -37.296875 Z M 15.96875 -30.109375 L 10.953125 -7.21875 L 17.578125 -7.21875 L 22.578125 -30.109375 Z M 15.96875 -30.109375 "/></g></g></g><g fill="#000000" fill-opacity="1"><g transform="translate(178.3214, 97.570538)"><g><path d="M 0.734375 -7.390625 L 4.234375 -7.390625 C 5.066406 -7.390625 5.726562 -7.222656 6.21875 -6.890625 C 6.707031 -6.554688 6.953125 -6.109375 6.953125 -5.546875 C 6.953125 -5.160156 6.835938 -4.820312 6.609375 -4.53125 C 6.390625 -4.238281 6.082031 -4.035156 5.6875 -3.921875 C 6.144531 -3.828125 6.507812 -3.609375 6.78125 -3.265625 C 7.0625 -2.929688 7.203125 -2.523438 7.203125 -2.046875 C 7.203125 -1.421875 6.945312 -0.921875 6.4375 -0.546875 C 5.925781 -0.179688 5.234375 0 4.359375 0 L 0.734375 0 Z M 2.609375 -5.953125 L 2.609375 -4.4375 L 4.125 -4.4375 C 4.40625 -4.4375 4.625 -4.503906 4.78125 -4.640625 C 4.945312 -4.773438 5.03125 -4.960938 5.03125 -5.203125 C 5.03125 -5.441406 4.945312 -5.625 4.78125 -5.75 C 4.625 -5.882812 4.40625 -5.953125 4.125 -5.953125 Z M 2.609375 -3.078125 L 2.609375 -1.453125 L 4.125 -1.453125 C 4.476562 -1.453125 4.753906 -1.523438 4.953125 -1.671875 C 5.160156 -1.816406 5.265625 -2.019531 5.265625 -2.28125 C 5.265625 -2.53125 5.160156 -2.722656 4.953125 -2.859375 C 4.753906 -3.003906 4.476562 -3.078125 4.125 -3.078125 Z M 2.609375 -3.078125 "/></g></g></g><g fill="#000000" fill-opacity="1"><g transform="translate(185.915301, 97.570538)"><g><path d="M 4.546875 -2.390625 L 4.546875 0 L 2.6875 0 L 2.6875 -2.328125 L -0.046875 -7.390625 L 1.828125 -7.390625 L 3.609375 -4.171875 L 5.359375 -7.390625 L 7.234375 -7.390625 Z M 4.546875 -2.390625 "/></g></g></g><g fill="#000000" fill-opacity="1"><g transform="translate(193.140055, 97.570538)"><g/></g></g><g fill="#000000" fill-opacity="1"><g transform="translate(195.639773, 97.570538)"><g><path d="M 0.734375 -7.390625 L 3.953125 -7.390625 C 4.898438 -7.390625 5.632812 -7.164062 6.15625 -6.71875 C 6.675781 -6.269531 6.9375 -5.632812 6.9375 -4.8125 C 6.9375 -3.945312 6.675781 -3.273438 6.15625 -2.796875 C 5.632812 -2.316406 4.898438 -2.078125 3.953125 -2.078125 L 2.625 -2.078125 L 2.625 0 L 0.734375 0 Z M 2.625 -5.921875 L 2.625 -3.5625 L 3.859375 -3.5625 C 4.273438 -3.5625 4.597656 -3.660156 4.828125 -3.859375 C 5.054688 -4.066406 5.171875 -4.363281 5.171875 -4.75 C 5.171875 -5.132812 5.054688 -5.425781 4.828125 -5.625 C 4.597656 -5.820312 4.273438 -5.921875 3.859375 -5.921875 Z M 2.625 -5.921875 "/></g></g></g><g fill="#000000" fill-opacity="1"><g transform="translate(202.864526, 97.570538)"><g><path d="M 7.5625 0 L 5.6875 0 L 5.6875 -2.875 L 2.625 -2.875 L 2.625 0 L 0.734375 0 L 0.734375 -7.390625 L 2.625 -7.390625 L 2.625 -4.359375 L 5.6875 -4.359375 L 5.6875 -7.390625 L 7.5625 -7.390625 Z M 7.5625 0 "/></g></g></g><g fill="#000000" fill-opacity="1"><g transform="translate(211.207262, 97.570538)"><g><path d="M 4.25 -7.453125 C 5.394531 -7.453125 6.347656 -7.09375 7.109375 -6.375 C 7.867188 -5.664062 8.25 -4.773438 8.25 -3.703125 C 8.25 -2.628906 7.863281 -1.726562 7.09375 -1 C 6.332031 -0.28125 5.378906 0.078125 4.234375 0.078125 C 3.097656 0.078125 2.148438 -0.28125 1.390625 -1 C 0.628906 -1.71875 0.25 -2.617188 0.25 -3.703125 C 0.25 -4.785156 0.628906 -5.679688 1.390625 -6.390625 C 2.148438 -7.097656 3.101562 -7.453125 4.25 -7.453125 Z M 4.265625 -5.890625 C 3.691406 -5.890625 3.195312 -5.675781 2.78125 -5.25 C 2.375 -4.832031 2.171875 -4.3125 2.171875 -3.6875 C 2.171875 -3.070312 2.375 -2.550781 2.78125 -2.125 C 3.195312 -1.695312 3.691406 -1.484375 4.265625 -1.484375 C 4.835938 -1.484375 5.320312 -1.695312 5.71875 -2.125 C 6.113281 -2.550781 6.3125 -3.070312 6.3125 -3.6875 C 6.3125 -4.3125 6.113281 -4.832031 5.71875 -5.25 C 5.320312 -5.675781 4.835938 -5.890625 4.265625 -5.890625 Z M 4.265625 -5.890625 "/></g></g></g><g fill="#000000" fill-opacity="1"><g transform="translate(219.750386, 97.570538)"><g/></g></g><g fill="#000000" fill-opacity="1"><g transform="translate(222.250104, 97.570538)"><g><path d="M 6.390625 -5.890625 L 4.15625 -5.890625 L 4.15625 0 L 2.28125 0 L 2.28125 -5.890625 L 0.078125 -5.890625 L 0.078125 -7.40625 L 6.390625 -7.40625 Z M 6.390625 -5.890625 "/></g></g></g><g fill="#000000" fill-opacity="1"><g transform="translate(228.747124, 97.570538)"><g><path d="M 7.390625 -7.390625 L 7.390625 -3.109375 C 7.390625 -2.128906 7.085938 -1.351562 6.484375 -0.78125 C 5.878906 -0.207031 5.0625 0.078125 4.03125 0.078125 C 2.988281 0.078125 2.15625 -0.207031 1.53125 -0.78125 C 0.914062 -1.351562 0.609375 -2.128906 0.609375 -3.109375 L 0.609375 -7.390625 L 2.5 -7.390625 L 2.5 -3.109375 C 2.5 -2.609375 2.640625 -2.210938 2.921875 -1.921875 C 3.203125 -1.628906 3.570312 -1.484375 4.03125 -1.484375 C 4.476562 -1.484375 4.835938 -1.628906 5.109375 -1.921875 C 5.390625 -2.210938 5.53125 -2.609375 5.53125 -3.109375 L 5.53125 -7.390625 Z M 7.390625 -7.390625 "/></g></g></g><g fill="#000000" fill-opacity="1"><g transform="translate(236.794542, 97.570538)"><g><path d="M 6.53125 -5.921875 L 2.625 -5.921875 L 2.625 -4.453125 L 6.140625 -4.453125 L 6.140625 -2.96875 L 2.625 -2.96875 L 2.625 -1.484375 L 6.640625 -1.484375 L 6.640625 0 L 0.734375 0 L 0.734375 -7.390625 L 6.53125 -7.390625 Z M 6.53125 -5.921875 "/></g></g></g><g fill="#000000" fill-opacity="1"><g transform="translate(243.956016, 97.570538)"><g/></g></g><g fill="#000000" fill-opacity="1"><g transform="translate(246.455734, 97.570538)"><g><path d="M 3.578125 -7.484375 C 4.679688 -7.484375 5.65625 -7.207031 6.5 -6.65625 L 5.78125 -5.1875 C 5.394531 -5.414062 4.976562 -5.597656 4.53125 -5.734375 C 4.09375 -5.878906 3.722656 -5.953125 3.421875 -5.953125 C 2.878906 -5.953125 2.609375 -5.773438 2.609375 -5.421875 C 2.609375 -5.179688 2.738281 -4.988281 3 -4.84375 C 3.269531 -4.707031 3.597656 -4.585938 3.984375 -4.484375 C 4.367188 -4.390625 4.753906 -4.269531 5.140625 -4.125 C 5.523438 -3.976562 5.847656 -3.742188 6.109375 -3.421875 C 6.378906 -3.097656 6.515625 -2.691406 6.515625 -2.203125 C 6.515625 -1.484375 6.234375 -0.925781 5.671875 -0.53125 C 5.117188 -0.132812 4.414062 0.0625 3.5625 0.0625 C 2.945312 0.0625 2.335938 -0.0390625 1.734375 -0.25 C 1.140625 -0.46875 0.617188 -0.757812 0.171875 -1.125 L 0.90625 -2.5625 C 1.28125 -2.238281 1.71875 -1.972656 2.21875 -1.765625 C 2.726562 -1.554688 3.179688 -1.453125 3.578125 -1.453125 C 3.878906 -1.453125 4.113281 -1.503906 4.28125 -1.609375 C 4.457031 -1.722656 4.546875 -1.890625 4.546875 -2.109375 C 4.546875 -2.304688 4.445312 -2.472656 4.25 -2.609375 C 4.050781 -2.742188 3.804688 -2.84375 3.515625 -2.90625 C 3.234375 -2.976562 2.921875 -3.070312 2.578125 -3.1875 C 2.242188 -3.300781 1.929688 -3.425781 1.640625 -3.5625 C 1.359375 -3.695312 1.117188 -3.910156 0.921875 -4.203125 C 0.734375 -4.492188 0.640625 -4.84375 0.640625 -5.25 C 0.640625 -5.925781 0.90625 -6.46875 1.4375 -6.875 C 1.976562 -7.28125 2.691406 -7.484375 3.578125 -7.484375 Z M 3.578125 -7.484375 "/></g></g></g><g fill="#000000" fill-opacity="1"><g transform="translate(253.300801, 97.570538)"><g><path d="M 4.25 -7.453125 C 5.394531 -7.453125 6.347656 -7.09375 7.109375 -6.375 C 7.867188 -5.664062 8.25 -4.773438 8.25 -3.703125 C 8.25 -2.628906 7.863281 -1.726562 7.09375 -1 C 6.332031 -0.28125 5.378906 0.078125 4.234375 0.078125 C 3.097656 0.078125 2.148438 -0.28125 1.390625 -1 C 0.628906 -1.71875 0.25 -2.617188 0.25 -3.703125 C 0.25 -4.785156 0.628906 -5.679688 1.390625 -6.390625 C 2.148438 -7.097656 3.101562 -7.453125 4.25 -7.453125 Z M 4.265625 -5.890625 C 3.691406 -5.890625 3.195312 -5.675781 2.78125 -5.25 C 2.375 -4.832031 2.171875 -4.3125 2.171875 -3.6875 C 2.171875 -3.070312 2.375 -2.550781 2.78125 -2.125 C 3.195312 -1.695312 3.691406 -1.484375 4.265625 -1.484375 C 4.835938 -1.484375 5.320312 -1.695312 5.71875 -2.125 C 6.113281 -2.550781 6.3125 -3.070312 6.3125 -3.6875 C 6.3125 -4.3125 6.113281 -4.832031 5.71875 -5.25 C 5.320312 -5.675781 4.835938 -5.890625 4.265625 -5.890625 Z M 4.265625 -5.890625 "/></g></g></g><g fill="#000000" fill-opacity="1"><g transform="translate(261.843925, 97.570538)"><g><path d="M 6.21875 -5.921875 L 2.625 -5.921875 L 2.625 -4.203125 L 5.9375 -4.203125 L 5.9375 -2.71875 L 2.625 -2.71875 L 2.625 0 L 0.734375 0 L 0.734375 -7.390625 L 6.21875 -7.390625 Z M 6.21875 -5.921875 "/></g></g></g><g fill="#000000" fill-opacity="1"><g transform="translate(268.267115, 97.570538)"><g><path d="M 6.390625 -5.890625 L 4.15625 -5.890625 L 4.15625 0 L 2.28125 0 L 2.28125 -5.890625 L 0.078125 -5.890625 L 0.078125 -7.40625 L 6.390625 -7.40625 Z M 6.390625 -5.890625 "/></g></g></g><g fill="#000000" fill-opacity="1"><g transform="translate(274.764129, 97.570538)"><g><path d="M 9.046875 0 L 7.125 0 L 5.75 -5.109375 L 4.359375 0 L 2.40625 0 L -0.015625 -7.390625 L 2 -7.390625 L 3.4375 -1.953125 L 4.859375 -7.390625 L 6.703125 -7.390625 L 8.140625 -1.953125 L 9.5625 -7.390625 L 11.484375 -7.390625 Z M 9.046875 0 "/></g></g></g><g fill="#000000" fill-opacity="1"><g transform="translate(286.218217, 97.570538)"><g><path d="M 5.65625 -1.359375 L 2.421875 -1.359375 L 1.875 0 L -0.046875 0 L 3.140625 -7.390625 L 5.0625 -7.390625 L 8.1875 0 L 6.171875 0 Z M 5.109375 -2.78125 L 4.046875 -5.53125 L 2.96875 -2.78125 Z M 5.109375 -2.78125 "/></g></g></g><g fill="#000000" fill-opacity="1"><g transform="translate(294.392199, 97.570538)"><g><path d="M 5.203125 0 L 4.09375 -2.078125 L 2.625 -2.078125 L 2.625 0 L 0.734375 0 L 0.734375 -7.390625 L 4.046875 -7.390625 C 5.023438 -7.390625 5.78125 -7.164062 6.3125 -6.71875 C 6.851562 -6.269531 7.125 -5.632812 7.125 -4.8125 C 7.125 -3.675781 6.675781 -2.882812 5.78125 -2.4375 L 7.328125 0 Z M 2.625 -3.5625 L 4.046875 -3.5625 C 4.453125 -3.5625 4.765625 -3.660156 4.984375 -3.859375 C 5.210938 -4.066406 5.328125 -4.363281 5.328125 -4.75 C 5.328125 -5.132812 5.210938 -5.425781 4.984375 -5.625 C 4.765625 -5.820312 4.453125 -5.921875 4.046875 -5.921875 L 2.625 -5.921875 Z M 2.625 -3.5625 "/></g></g></g><g fill="#000000" fill-opacity="1"><g transform="translate(302.081025, 97.570538)"><g><path d="M 6.53125 -5.921875 L 2.625 -5.921875 L 2.625 -4.453125 L 6.140625 -4.453125 L 6.140625 -2.96875 L 2.625 -2.96875 L 2.625 -1.484375 L 6.640625 -1.484375 L 6.640625 0 L 0.734375 0 L 0.734375 -7.390625 L 6.53125 -7.390625 Z M 6.53125 -5.921875 "/></g></g></g><g fill="#000000" fill-opacity="1"><g transform="translate(309.242494, 97.570538)"><g/></g></g><g fill="#000000" fill-opacity="1"><g transform="translate(311.742206, 97.570538)"><g><path d="M 3.578125 -7.484375 C 4.679688 -7.484375 5.65625 -7.207031 6.5 -6.65625 L 5.78125 -5.1875 C 5.394531 -5.414062 4.976562 -5.597656 4.53125 -5.734375 C 4.09375 -5.878906 3.722656 -5.953125 3.421875 -5.953125 C 2.878906 -5.953125 2.609375 -5.773438 2.609375 -5.421875 C 2.609375 -5.179688 2.738281 -4.988281 3 -4.84375 C 3.269531 -4.707031 3.597656 -4.585938 3.984375 -4.484375 C 4.367188 -4.390625 4.753906 -4.269531 5.140625 -4.125 C 5.523438 -3.976562 5.847656 -3.742188 6.109375 -3.421875 C 6.378906 -3.097656 6.515625 -2.691406 6.515625 -2.203125 C 6.515625 -1.484375 6.234375 -0.925781 5.671875 -0.53125 C 5.117188 -0.132812 4.414062 0.0625 3.5625 0.0625 C 2.945312 0.0625 2.335938 -0.0390625 1.734375 -0.25 C 1.140625 -0.46875 0.617188 -0.757812 0.171875 -1.125 L 0.90625 -2.5625 C 1.28125 -2.238281 1.71875 -1.972656 2.21875 -1.765625 C 2.726562 -1.554688 3.179688 -1.453125 3.578125 -1.453125 C 3.878906 -1.453125 4.113281 -1.503906 4.28125 -1.609375 C 4.457031 -1.722656 4.546875 -1.890625 4.546875 -2.109375 C 4.546875 -2.304688 4.445312 -2.472656 4.25 -2.609375 C 4.050781 -2.742188 3.804688 -2.84375 3.515625 -2.90625 C 3.234375 -2.976562 2.921875 -3.070312 2.578125 -3.1875 C 2.242188 -3.300781 1.929688 -3.425781 1.640625 -3.5625 C 1.359375 -3.695312 1.117188 -3.910156 0.921875 -4.203125 C 0.734375 -4.492188 0.640625 -4.84375 0.640625 -5.25 C 0.640625 -5.925781 0.90625 -6.46875 1.4375 -6.875 C 1.976562 -7.28125 2.691406 -7.484375 3.578125 -7.484375 Z M 3.578125 -7.484375 "/></g></g></g><g fill="#000000" fill-opacity="1"><g transform="translate(318.587267, 97.570538)"><g><path d="M 4.25 -7.453125 C 5.394531 -7.453125 6.347656 -7.09375 7.109375 -6.375 C 7.867188 -5.664062 8.25 -4.773438 8.25 -3.703125 C 8.25 -2.628906 7.863281 -1.726562 7.09375 -1 C 6.332031 -0.28125 5.378906 0.078125 4.234375 0.078125 C 3.097656 0.078125 2.148438 -0.28125 1.390625 -1 C 0.628906 -1.71875 0.25 -2.617188 0.25 -3.703125 C 0.25 -4.785156 0.628906 -5.679688 1.390625 -6.390625 C 2.148438 -7.097656 3.101562 -7.453125 4.25 -7.453125 Z M 4.265625 -5.890625 C 3.691406 -5.890625 3.195312 -5.675781 2.78125 -5.25 C 2.375 -4.832031 2.171875 -4.3125 2.171875 -3.6875 C 2.171875 -3.070312 2.375 -2.550781 2.78125 -2.125 C 3.195312 -1.695312 3.691406 -1.484375 4.265625 -1.484375 C 4.835938 -1.484375 5.320312 -1.695312 5.71875 -2.125 C 6.113281 -2.550781 6.3125 -3.070312 6.3125 -3.6875 C 6.3125 -4.3125 6.113281 -4.832031 5.71875 -5.25 C 5.320312 -5.675781 4.835938 -5.890625 4.265625 -5.890625 Z M 4.265625 -5.890625 "/></g></g></g><g fill="#000000" fill-opacity="1"><g transform="translate(327.130397, 97.570538)"><g><path d="M 2.625 -1.578125 L 5.75 -1.578125 L 5.75 0 L 0.734375 0 L 0.734375 -7.390625 L 2.625 -7.390625 Z M 2.625 -1.578125 "/></g></g></g><g fill="#000000" fill-opacity="1"><g transform="translate(333.089514, 97.570538)"><g><path d="M 7.390625 -7.390625 L 7.390625 -3.109375 C 7.390625 -2.128906 7.085938 -1.351562 6.484375 -0.78125 C 5.878906 -0.207031 5.0625 0.078125 4.03125 0.078125 C 2.988281 0.078125 2.15625 -0.207031 1.53125 -0.78125 C 0.914062 -1.351562 0.609375 -2.128906 0.609375 -3.109375 L 0.609375 -7.390625 L 2.5 -7.390625 L 2.5 -3.109375 C 2.5 -2.609375 2.640625 -2.210938 2.921875 -1.921875 C 3.203125 -1.628906 3.570312 -1.484375 4.03125 -1.484375 C 4.476562 -1.484375 4.835938 -1.628906 5.109375 -1.921875 C 5.390625 -2.210938 5.53125 -2.609375 5.53125 -3.109375 L 5.53125 -7.390625 Z M 7.390625 -7.390625 "/></g></g></g><g fill="#000000" fill-opacity="1"><g transform="translate(341.136938, 97.570538)"><g><path d="M 6.390625 -5.890625 L 4.15625 -5.890625 L 4.15625 0 L 2.28125 0 L 2.28125 -5.890625 L 0.078125 -5.890625 L 0.078125 -7.40625 L 6.390625 -7.40625 Z M 6.390625 -5.890625 "/></g></g></g><g fill="#000000" fill-opacity="1"><g transform="translate(347.633963, 97.570538)"><g><path d="M 2.625 0 L 0.734375 0 L 0.734375 -7.390625 L 2.625 -7.390625 Z M 2.625 0 "/></g></g></g><g fill="#000000" fill-opacity="1"><g transform="translate(351.040719, 97.570538)"><g><path d="M 4.25 -7.453125 C 5.394531 -7.453125 6.347656 -7.09375 7.109375 -6.375 C 7.867188 -5.664062 8.25 -4.773438 8.25 -3.703125 C 8.25 -2.628906 7.863281 -1.726562 7.09375 -1 C 6.332031 -0.28125 5.378906 0.078125 4.234375 0.078125 C 3.097656 0.078125 2.148438 -0.28125 1.390625 -1 C 0.628906 -1.71875 0.25 -2.617188 0.25 -3.703125 C 0.25 -4.785156 0.628906 -5.679688 1.390625 -6.390625 C 2.148438 -7.097656 3.101562 -7.453125 4.25 -7.453125 Z M 4.265625 -5.890625 C 3.691406 -5.890625 3.195312 -5.675781 2.78125 -5.25 C 2.375 -4.832031 2.171875 -4.3125 2.171875 -3.6875 C 2.171875 -3.070312 2.375 -2.550781 2.78125 -2.125 C 3.195312 -1.695312 3.691406 -1.484375 4.265625 -1.484375 C 4.835938 -1.484375 5.320312 -1.695312 5.71875 -2.125 C 6.113281 -2.550781 6.3125 -3.070312 6.3125 -3.6875 C 6.3125 -4.3125 6.113281 -4.832031 5.71875 -5.25 C 5.320312 -5.675781 4.835938 -5.890625 4.265625 -5.890625 Z M 4.265625 -5.890625 "/></g></g></g><g fill="#000000" fill-opacity="1"><g transform="translate(359.583849, 97.570538)"><g><path d="M 7.5625 0 L 5.90625 0 L 2.5 -4.546875 L 2.5 0 L 0.734375 0 L 0.734375 -7.390625 L 2.390625 -7.390625 L 5.8125 -2.828125 L 5.8125 -7.390625 L 7.5625 -7.390625 Z M 7.5625 0 "/></g></g></g><g fill="#000000" fill-opacity="1"><g transform="translate(367.926591, 97.570538)"><g><path d="M 3.578125 -7.484375 C 4.679688 -7.484375 5.65625 -7.207031 6.5 -6.65625 L 5.78125 -5.1875 C 5.394531 -5.414062 4.976562 -5.597656 4.53125 -5.734375 C 4.09375 -5.878906 3.722656 -5.953125 3.421875 -5.953125 C 2.878906 -5.953125 2.609375 -5.773438 2.609375 -5.421875 C 2.609375 -5.179688 2.738281 -4.988281 3 -4.84375 C 3.269531 -4.707031 3.597656 -4.585938 3.984375 -4.484375 C 4.367188 -4.390625 4.753906 -4.269531 5.140625 -4.125 C 5.523438 -3.976562 5.847656 -3.742188 6.109375 -3.421875 C 6.378906 -3.097656 6.515625 -2.691406 6.515625 -2.203125 C 6.515625 -1.484375 6.234375 -0.925781 5.671875 -0.53125 C 5.117188 -0.132812 4.414062 0.0625 3.5625 0.0625 C 2.945312 0.0625 2.335938 -0.0390625 1.734375 -0.25 C 1.140625 -0.46875 0.617188 -0.757812 0.171875 -1.125 L 0.90625 -2.5625 C 1.28125 -2.238281 1.71875 -1.972656 2.21875 -1.765625 C 2.726562 -1.554688 3.179688 -1.453125 3.578125 -1.453125 C 3.878906 -1.453125 4.113281 -1.503906 4.28125 -1.609375 C 4.457031 -1.722656 4.546875 -1.890625 4.546875 -2.109375 C 4.546875 -2.304688 4.445312 -2.472656 4.25 -2.609375 C 4.050781 -2.742188 3.804688 -2.84375 3.515625 -2.90625 C 3.234375 -2.976562 2.921875 -3.070312 2.578125 -3.1875 C 2.242188 -3.300781 1.929688 -3.425781 1.640625 -3.5625 C 1.359375 -3.695312 1.117188 -3.910156 0.921875 -4.203125 C 0.734375 -4.492188 0.640625 -4.84375 0.640625 -5.25 C 0.640625 -5.925781 0.90625 -6.46875 1.4375 -6.875 C 1.976562 -7.28125 2.691406 -7.484375 3.578125 -7.484375 Z M 3.578125 -7.484375 "/></g></g></g><g fill="#000000" fill-opacity="1"><g transform="translate(374.771663, 97.570538)"><g/></g></g><g fill="#000000" fill-opacity="1"><g transform="translate(377.271387, 97.570538)"><g><path d="M 5.046875 -7.40625 L 5.046875 -2.390625 C 5.046875 -1.609375 4.816406 -1 4.359375 -0.5625 C 3.910156 -0.132812 3.289062 0.078125 2.5 0.078125 C 1.488281 0.078125 0.640625 -0.3125 -0.046875 -1.09375 L 0.8125 -2.359375 C 1.34375 -1.804688 1.859375 -1.53125 2.359375 -1.53125 C 2.890625 -1.53125 3.15625 -1.832031 3.15625 -2.4375 L 3.15625 -5.890625 L 0.625 -5.890625 L 0.625 -7.40625 Z M 5.046875 -7.40625 "/></g></g></g><g fill="#000000" fill-opacity="1"><g transform="translate(382.977388, 97.570538)"><g><path d="M 3.578125 -7.484375 C 4.679688 -7.484375 5.65625 -7.207031 6.5 -6.65625 L 5.78125 -5.1875 C 5.394531 -5.414062 4.976562 -5.597656 4.53125 -5.734375 C 4.09375 -5.878906 3.722656 -5.953125 3.421875 -5.953125 C 2.878906 -5.953125 2.609375 -5.773438 2.609375 -5.421875 C 2.609375 -5.179688 2.738281 -4.988281 3 -4.84375 C 3.269531 -4.707031 3.597656 -4.585938 3.984375 -4.484375 C 4.367188 -4.390625 4.753906 -4.269531 5.140625 -4.125 C 5.523438 -3.976562 5.847656 -3.742188 6.109375 -3.421875 C 6.378906 -3.097656 6.515625 -2.691406 6.515625 -2.203125 C 6.515625 -1.484375 6.234375 -0.925781 5.671875 -0.53125 C 5.117188 -0.132812 4.414062 0.0625 3.5625 0.0625 C 2.945312 0.0625 2.335938 -0.0390625 1.734375 -0.25 C 1.140625 -0.46875 0.617188 -0.757812 0.171875 -1.125 L 0.90625 -2.5625 C 1.28125 -2.238281 1.71875 -1.972656 2.21875 -1.765625 C 2.726562 -1.554688 3.179688 -1.453125 3.578125 -1.453125 C 3.878906 -1.453125 4.113281 -1.503906 4.28125 -1.609375 C 4.457031 -1.722656 4.546875 -1.890625 4.546875 -2.109375 C 4.546875 -2.304688 4.445312 -2.472656 4.25 -2.609375 C 4.050781 -2.742188 3.804688 -2.84375 3.515625 -2.90625 C 3.234375 -2.976562 2.921875 -3.070312 2.578125 -3.1875 C 2.242188 -3.300781 1.929688 -3.425781 1.640625 -3.5625 C 1.359375 -3.695312 1.117188 -3.910156 0.921875 -4.203125 C 0.734375 -4.492188 0.640625 -4.84375 0.640625 -5.25 C 0.640625 -5.925781 0.90625 -6.46875 1.4375 -6.875 C 1.976562 -7.28125 2.691406 -7.484375 3.578125 -7.484375 Z M 3.578125 -7.484375 "/></g></g></g><g fill="#000000" fill-opacity="1"><g transform="translate(389.82246, 97.570538)"><g><path d="M 4.203125 -7.453125 C 4.753906 -7.453125 5.296875 -7.335938 5.828125 -7.109375 C 6.359375 -6.890625 6.8125 -6.585938 7.1875 -6.203125 L 6.09375 -4.921875 C 5.851562 -5.210938 5.566406 -5.445312 5.234375 -5.625 C 4.898438 -5.800781 4.566406 -5.890625 4.234375 -5.890625 C 3.648438 -5.890625 3.160156 -5.679688 2.765625 -5.265625 C 2.367188 -4.847656 2.171875 -4.335938 2.171875 -3.734375 C 2.171875 -3.117188 2.367188 -2.601562 2.765625 -2.1875 C 3.160156 -1.769531 3.648438 -1.5625 4.234375 -1.5625 C 4.546875 -1.5625 4.867188 -1.640625 5.203125 -1.796875 C 5.535156 -1.953125 5.832031 -2.160156 6.09375 -2.421875 L 7.1875 -1.265625 C 6.789062 -0.859375 6.316406 -0.53125 5.765625 -0.28125 C 5.222656 -0.0390625 4.679688 0.078125 4.140625 0.078125 C 3.023438 0.078125 2.097656 -0.28125 1.359375 -1 C 0.617188 -1.726562 0.25 -2.632812 0.25 -3.71875 C 0.25 -4.78125 0.625 -5.664062 1.375 -6.375 C 2.132812 -7.09375 3.078125 -7.453125 4.203125 -7.453125 Z M 4.203125 -7.453125 "/></g></g></g></svg>